<svg width="26" height="27" viewBox="0 0 26 27" fill="none" xmlns="http://www.w3.org/2000/svg">
<path d="M25.9862 13.7526C25.9862 12.6464 25.8978 11.8392 25.7063 11.0021H13.2589V15.9948H20.5653C20.418 17.2356 19.6226 19.1041 17.8549 20.3597L17.8301 20.5269L21.7657 23.6209L22.0384 23.6485C24.5426 21.3016 25.9862 17.8484 25.9862 13.7526Z" fill="#4285F4"/>
<path d="M13.259 26.9073C16.8386 26.9073 19.8436 25.7113 22.0385 23.6485L17.855 20.3597C16.7355 21.152 15.2329 21.7051 13.259 21.7051C9.75316 21.7051 6.77758 19.3583 5.71687 16.1145L5.56139 16.1279L1.46905 19.3418L1.41553 19.4928C3.59565 23.8876 8.07379 26.9073 13.259 26.9073Z" fill="#34A853"/>
<path d="M5.71679 16.1145C5.43692 15.2774 5.27494 14.3804 5.27494 13.4536C5.27494 12.5268 5.43692 11.6299 5.70207 10.7928L5.69465 10.6145L1.55103 7.34894L1.41545 7.41438C0.516923 9.23811 0.00134277 11.2861 0.00134277 13.4536C0.00134277 15.6211 0.516923 17.669 1.41545 19.4928L5.71679 16.1145Z" fill="#FBBC05"/>
<path d="M13.259 5.20203C15.7485 5.20203 17.4277 6.29327 18.3853 7.20519L22.1269 3.49794C19.8289 1.33042 16.8385 0 13.259 0C8.07379 0 3.59565 3.01957 1.41553 7.41439L5.70214 10.7928C6.77758 7.54897 9.75315 5.20203 13.259 5.20203Z" fill="#EB4335"/>
</svg>
