<svg width="657" height="635" viewBox="0 0 657 635" fill="none" xmlns="http://www.w3.org/2000/svg">
<g clip-path="url(#clip0)">
<path d="M152.933 108.581L155.717 338.698L276.017 397.407L273.233 167.291L152.933 108.581Z" fill="#F2F2F2"/>
<path d="M116.377 90.1987L26.4856 275.087L148.455 334.612L145.671 104.495L116.377 90.1987Z" fill="#F2F2F2"/>
<path d="M657 349.934L414.217 231.449L417.001 461.565L567.109 534.823L657 349.934Z" fill="#F2F2F2"/>
<path d="M284.109 167.291L286.893 397.407L407.192 456.117L404.408 226.001L284.109 167.291Z" fill="#F2F2F2"/>
<path d="M555.639 177.093L540.532 177.68L541.285 197.14L556.392 196.553L555.639 177.093Z" fill="#2F80ED"/>
<path d="M487.493 245.245C487.493 245.245 466.572 235.23 466.907 243.879C467.242 252.528 487.995 258.218 487.995 258.218L487.493 245.245Z" fill="#FFB9B9"/>
<path d="M498.971 318.423C498.971 318.423 489.101 342.627 485.454 360.092C481.807 377.557 476.253 401.592 483.397 418.638C490.541 435.684 510.852 485.782 511.061 491.188C511.27 496.593 509.321 502.083 513.637 501.915C517.953 501.747 541.442 494.338 542.395 491.053C543.349 487.768 534.381 479.455 534.381 479.455L512.239 409.939L535.341 364.65L552.005 432.213L555.269 516.538C555.269 516.538 571.287 511.585 573.613 515.826C573.613 515.826 580.789 505.802 581.701 501.436C582.613 497.07 578.312 413.868 578.312 413.868C578.312 413.868 593.015 319.101 581.146 319.562C569.276 320.023 522.784 291.513 498.971 318.423Z" fill="#120F13"/>
<path d="M513.47 497.591C513.47 497.591 502.521 521.836 501.484 522.959C500.446 524.082 493.312 535.186 498.707 534.977C504.102 534.767 516.841 528.858 526.218 519.832C535.595 510.806 547.958 495.168 546.837 494.129C545.716 493.09 538.037 490.14 538.037 490.14L513.47 497.591Z" fill="#120F13"/>
<path d="M557.218 511.049C557.218 511.049 556.557 521.902 554.566 526.31C552.576 530.718 552.827 537.205 558.222 536.995C563.617 536.785 577.561 534.078 577.561 534.078C577.561 534.078 578.389 527.55 577.268 526.511C576.147 525.471 571.371 513.747 573.403 510.42C575.436 507.093 557.218 511.049 557.218 511.049Z" fill="#120F13"/>
<path d="M565.199 158.857C565.199 158.857 576.701 176.816 581.185 180.973C585.668 185.129 573.055 194.281 573.055 194.281L550.478 197.324C550.478 197.324 550.762 176.741 549.6 174.621C548.437 172.501 565.199 158.857 565.199 158.857Z" fill="#FFB9B9"/>
<path d="M545.576 182.356C545.576 182.356 550.227 190.837 554.543 190.67C558.86 190.502 581.185 180.973 582.138 177.688C583.092 174.402 589.533 201.22 589.533 201.22L534.905 297.538L521.58 288.312L528.036 231.76L533.339 201.238L545.576 182.356Z" fill="#2F80ED"/>
<path d="M584.153 268.557C581.974 273.124 580.613 277.887 580.802 282.763C580.81 282.979 580.819 283.195 580.838 283.411C581.355 293.417 585.034 304.989 586.354 313.404C587.312 319.441 587.039 323.848 583.513 324.883C574.964 327.381 584.759 329.166 551.685 340.195C518.612 351.224 512.84 341.704 512.756 339.542C512.672 337.38 517.44 320.954 516.319 319.915C515.198 318.876 500.635 333.517 496.235 331.522C491.836 329.528 495.733 318.549 495.733 318.549C495.733 318.549 505.645 295.427 505.436 290.022C505.227 284.616 520.45 259.122 520.45 259.122L530.804 191.592C530.804 191.592 534.786 182.775 540.139 181.485C545.493 180.194 549.934 183.27 549.934 183.27L540.976 203.106L531.525 238.121L533.106 251.052C533.106 251.052 544.097 227.888 551.315 218.945C558.534 210.003 573.924 188.834 573.924 188.834C573.924 188.834 577.518 176.687 574.805 173.057C572.092 169.416 586.12 168.871 592.101 183.797C595.271 191.707 600.418 203.504 603.642 214.487C606.515 224.217 607.872 233.314 605.025 238.513C600.675 246.456 589.732 256.896 584.153 268.557Z" fill="#575A89"/>
<path opacity="0.1" d="M605.025 238.513C600.675 246.456 589.732 256.896 584.153 268.557C582.696 263.298 580.919 257.856 580.919 257.856C580.919 257.856 574.101 221.308 594.268 211.863C597.609 211.539 600.952 212.475 603.642 214.487C606.515 224.217 607.872 233.314 605.025 238.513Z" fill="black"/>
<path d="M524.967 236.21L507.869 241.205L484.13 242.127L481.688 262.794L520.701 265.609C520.701 265.609 530.445 238.162 524.967 236.21Z" fill="#575A89"/>
<path d="M552.846 305.697C552.846 305.697 529.973 309.499 535.194 316.395C540.414 323.291 560.677 316.041 560.677 316.041L552.846 305.697Z" fill="#FFB9B9"/>
<path opacity="0.1" d="M580.838 283.411C581.355 293.417 585.034 304.989 586.354 313.404C579.067 320.314 572.138 326.408 569.527 326.509C564.132 326.719 555.458 325.973 552.262 327.18C549.067 328.387 547.193 307.888 547.193 307.888C547.193 307.888 549.1 301.318 557.607 297.739C563.349 295.318 574.355 288.752 580.838 283.411Z" fill="black"/>
<path d="M594.017 205.377C594.017 205.377 612.277 202.502 611.291 232.856C610.304 263.21 613.215 282.586 605.871 288.285C598.527 293.984 574.671 319.813 569.276 320.023C563.881 320.232 555.207 319.487 552.011 320.694C548.816 321.9 546.942 301.402 546.942 301.402C546.942 301.402 548.849 294.831 557.356 291.253C565.863 287.674 585.904 274.985 585.737 270.661C585.57 266.337 580.668 251.369 580.668 251.369C580.668 251.369 573.85 214.822 594.017 205.377Z" fill="#575A89"/>
<path d="M549.097 185.45C562.218 185.45 572.854 174.793 572.854 161.648C572.854 148.502 562.218 137.846 549.097 137.846C535.977 137.846 525.34 148.502 525.34 161.648C525.34 174.793 535.977 185.45 549.097 185.45Z" fill="#FFB9B9"/>
<path d="M533.101 127.533C532.528 128.028 531.842 128.373 531.104 128.537C530.733 128.603 530.351 128.52 530.042 128.305C529.732 128.09 529.52 127.762 529.452 127.391C528.908 128.52 528.295 129.724 527.185 130.303C526.076 130.883 524.36 130.397 524.2 129.153C524.038 130.098 523.621 130.979 522.994 131.703C522.306 132.361 521.057 132.527 520.456 131.788C520.942 134.449 520.642 137.185 520.795 139.886C520.947 142.587 521.666 145.45 523.703 147.226C526.673 149.816 531.139 149.177 535.046 148.686C535.637 148.562 536.25 148.595 536.824 148.783C538.287 149.408 538.22 151.448 538.24 153.041C538.36 155.836 539.464 158.499 541.357 160.555C543.25 162.612 545.809 163.93 548.58 164.276C550.131 164.516 551.713 164.129 552.979 163.2C554.089 162.258 554.655 160.723 555.926 160.015C557.994 158.864 560.502 160.543 562.013 162.365C563.525 164.188 565.015 166.43 567.357 166.764C570.454 167.205 572.813 164.043 573.971 161.131C575.568 157.049 576.333 152.689 576.221 148.307C576.109 143.924 575.122 139.609 573.319 135.615C566.852 121.49 544.76 119.256 533.101 127.533Z" fill="#120F13"/>
<path d="M407.382 147.139C434.41 147.139 456.321 125.187 456.321 98.1083C456.321 71.0294 434.41 49.0777 407.382 49.0777C380.355 49.0777 358.444 71.0294 358.444 98.1083C358.444 125.187 380.355 147.139 407.382 147.139Z" fill="#2F80ED"/>
<path d="M354.141 46.3786C365.417 57.9662 382.738 59.3697 382.738 59.3697C382.738 59.3697 381.777 41.986 370.502 30.3984C359.226 18.8109 341.905 17.4074 341.905 17.4074C341.905 17.4074 342.866 34.7911 354.141 46.3786Z" fill="#252329"/>
<path d="M357.923 40.4229C373.519 44.6372 383.186 59.1047 383.186 59.1047C383.186 59.1047 367.568 66.7395 351.973 62.5252C336.378 58.3109 326.711 43.8434 326.711 43.8434C326.711 43.8434 342.328 36.2086 357.923 40.4229Z" fill="#2F80ED"/>
<path d="M373.232 29.3746C373.335 45.5573 384.843 58.6026 384.843 58.6026C384.843 58.6026 396.184 45.4107 396.081 29.2281C395.977 13.0454 384.469 0 384.469 0C384.469 0 373.129 13.1919 373.232 29.3746Z" fill="#252329"/>
<path d="M380.079 27.7114C388.399 41.583 385.35 58.7233 385.35 58.7233C385.35 58.7233 368.813 53.3733 360.494 39.5018C352.175 25.6302 355.224 8.48996 355.224 8.48996C355.224 8.48996 371.76 13.8399 380.079 27.7114Z" fill="#2F80ED"/>
<path d="M402.954 119.541C416.843 119.541 428.103 108.26 428.103 94.3444C428.103 80.4288 416.843 69.1481 402.954 69.1481C389.065 69.1481 377.805 80.4288 377.805 94.3444C377.805 108.26 389.065 119.541 402.954 119.541Z" fill="#F2F2F2"/>
<path d="M391.185 110.312C395.689 110.312 399.341 106.653 399.341 102.14C399.341 97.6271 395.689 93.9685 391.185 93.9685C386.68 93.9685 383.028 97.6271 383.028 102.14C383.028 106.653 386.68 110.312 391.185 110.312Z" fill="#252329"/>
<path d="M144.377 533.149C171.405 533.149 193.315 511.197 193.315 484.118C193.315 457.039 171.405 435.087 144.377 435.087C117.349 435.087 95.4388 457.039 95.4388 484.118C95.4388 511.197 117.349 533.149 144.377 533.149Z" fill="#2F80ED"/>
<path d="M123.01 412.963C127.228 428.584 141.675 438.259 141.675 438.259C141.675 438.259 149.284 422.606 145.066 406.985C140.848 391.363 126.401 381.689 126.401 381.689C126.401 381.689 118.792 397.341 123.01 412.963Z" fill="#252329"/>
<path d="M129.208 409.606C140.782 420.894 142.196 438.246 142.196 438.246C142.196 438.246 124.844 437.297 113.27 426.009C101.696 414.721 100.282 397.368 100.282 397.368C100.282 397.368 117.634 398.317 129.208 409.606Z" fill="#2F80ED"/>
<path d="M147.948 407.423C140.175 421.608 143.887 438.616 143.887 438.616C143.887 438.616 160.204 432.625 167.977 418.44C175.751 404.254 172.038 387.246 172.038 387.246C172.038 387.246 155.722 393.237 147.948 407.423Z" fill="#252329"/>
<path d="M154.738 409.31C155.263 425.484 144.271 438.969 144.271 438.969C144.271 438.969 132.427 426.229 131.901 410.055C131.375 393.881 142.367 380.396 142.367 380.396C142.367 380.396 154.212 393.135 154.738 409.31Z" fill="#2F80ED"/>
<path d="M142.338 503.866C156.227 503.866 167.487 492.586 167.487 478.67C167.487 464.755 156.227 453.474 142.338 453.474C128.449 453.474 117.189 464.755 117.189 478.67C117.189 492.586 128.449 503.866 142.338 503.866Z" fill="#F2F2F2"/>
<path d="M150.494 474.584C154.999 474.584 158.651 470.926 158.651 466.412C158.651 461.899 154.999 458.241 150.494 458.241C145.99 458.241 142.338 461.899 142.338 466.412C142.338 470.926 145.99 474.584 150.494 474.584Z" fill="#252329"/>
<path d="M264.683 532.468H9.797V533.83H264.683V532.468Z" fill="#120F13"/>
<path d="M640.556 535.192H385.67V536.554H640.556V535.192Z" fill="#120F13"/>
<path d="M68.1753 533.461L66.9672 532.836C82.656 502.448 74.2666 462.984 64.4668 435.23C57.8124 416.574 49.3248 398.628 39.1292 381.653L40.2781 380.926C50.5268 397.986 59.0586 416.024 65.7479 434.775C75.638 462.783 84.0864 502.641 68.1753 533.461Z" fill="#120F13"/>
<path d="M79.8077 381.168L70.989 429.521L72.3258 429.766L81.1445 381.413L79.8077 381.168Z" fill="#120F13"/>
<path d="M21.17 422.366L20.1744 423.294L65.714 472.324L66.7095 471.396L21.17 422.366Z" fill="#120F13"/>
<path d="M103.039 476.224L79.9399 508.238L81.0418 509.036L104.141 477.022L103.039 476.224Z" fill="#120F13"/>
<path d="M83.884 368.351C87.6379 368.351 90.681 365.302 90.681 361.541C90.681 357.78 87.6379 354.731 83.884 354.731C80.1301 354.731 77.087 357.78 77.087 361.541C77.087 365.302 80.1301 368.351 83.884 368.351Z" fill="#2F80ED"/>
<path d="M9.79697 420.787C13.5508 420.787 16.5939 417.738 16.5939 413.977C16.5939 410.216 13.5508 407.167 9.79697 407.167C6.04311 407.167 3 410.216 3 413.977C3 417.738 6.04311 420.787 9.79697 420.787Z" fill="#252329"/>
<path d="M39.7037 427.596C43.4576 427.596 46.5007 424.548 46.5007 420.787C46.5007 417.026 43.4576 413.977 39.7037 413.977C35.9498 413.977 32.9067 417.026 32.9067 420.787C32.9067 424.548 35.9498 427.596 39.7037 427.596Z" fill="#252329"/>
<path d="M26.1097 454.155C29.8636 454.155 32.9067 451.106 32.9067 447.345C32.9067 443.584 29.8636 440.535 26.1097 440.535C22.3559 440.535 19.3127 443.584 19.3127 447.345C19.3127 451.106 22.3559 454.155 26.1097 454.155Z" fill="#2F80ED"/>
<path d="M111.072 471.179C114.826 471.179 117.869 468.13 117.869 464.369C117.869 460.609 114.826 457.56 111.072 457.56C107.318 457.56 104.275 460.609 104.275 464.369C104.275 468.13 107.318 471.179 111.072 471.179Z" fill="#252329"/>
<path d="M88.6418 478.67C92.3957 478.67 95.4388 475.621 95.4388 471.86C95.4388 468.099 92.3957 465.05 88.6418 465.05C84.888 465.05 81.8448 468.099 81.8448 471.86C81.8448 475.621 84.888 478.67 88.6418 478.67Z" fill="#252329"/>
<path d="M104.275 500.461C108.029 500.461 111.072 497.413 111.072 493.652C111.072 489.891 108.029 486.842 104.275 486.842C100.521 486.842 97.4779 489.891 97.4779 493.652C97.4779 497.413 100.521 500.461 104.275 500.461Z" fill="#252329"/>
<path d="M32.9067 376.523C36.6606 376.523 39.7037 373.474 39.7037 369.713C39.7037 365.952 36.6606 362.903 32.9067 362.903C29.1528 362.903 26.1097 365.952 26.1097 369.713C26.1097 373.474 29.1528 376.523 32.9067 376.523Z" fill="#252329"/>
<path d="M469.678 122.059H142.064V318.863H469.678V122.059Z" fill="#252329"/>
<path d="M154.978 132.955C156.855 132.955 158.376 131.43 158.376 129.55C158.376 127.669 156.855 126.145 154.978 126.145C153.101 126.145 151.579 127.669 151.579 129.55C151.579 131.43 153.101 132.955 154.978 132.955Z" fill="#2F80ED"/>
<path d="M167.212 132.955C169.089 132.955 170.611 131.43 170.611 129.55C170.611 127.669 169.089 126.145 167.212 126.145C165.336 126.145 163.814 127.669 163.814 129.55C163.814 131.43 165.336 132.955 167.212 132.955Z" fill="#2F80ED"/>
<path d="M179.447 132.955C181.324 132.955 182.846 131.43 182.846 129.55C182.846 127.669 181.324 126.145 179.447 126.145C177.57 126.145 176.049 127.669 176.049 129.55C176.049 131.43 177.57 132.955 179.447 132.955Z" fill="#2F80ED"/>
<path d="M469.678 137.165H142.338V138.527H469.678V137.165Z" fill="#120F13"/>
<path d="M333.059 177.219V238.507H244.134L227.706 258.255L229.582 238.507H221.589V177.219H333.059Z" fill="#2F80ED"/>
<path opacity="0.1" d="M333.059 198.329H292.957V238.507H333.059V198.329Z" fill="black"/>
<path d="M301.793 207.182H413.263V268.47H405.269L407.146 288.219L390.72 268.47H301.793V207.182Z" fill="#2F80ED"/>
<path opacity="0.1" d="M228.385 268.138C241.899 268.138 252.854 267.067 252.854 265.746C252.854 264.425 241.899 263.354 228.385 263.354C214.871 263.354 203.916 264.425 203.916 265.746C203.916 267.067 214.871 268.138 228.385 268.138Z" fill="black"/>
<path opacity="0.1" d="M407.146 300.476C422.537 300.476 435.013 299.257 435.013 297.752C435.013 296.248 422.537 295.028 407.146 295.028C391.755 295.028 379.278 296.248 379.278 297.752C379.278 299.257 391.755 300.476 407.146 300.476Z" fill="black"/>
</g>
<path d="M23.904 581.672L32.76 562.592H47.808L30.888 593.912V614H16.92V594.344L0 562.592H15.12L23.904 581.672ZM86.9946 593.984C86.9946 600.656 85.2186 605.792 81.6666 609.392C78.1146 612.944 73.2426 614.72 67.0506 614.72C63.2106 614.72 59.8026 613.928 56.8266 612.344C53.8506 610.712 51.4986 608.36 49.7706 605.288C48.0906 602.168 47.2506 598.4 47.2506 593.984C47.2506 587.408 49.0266 582.344 52.5786 578.792C56.1306 575.24 61.0266 573.464 67.2666 573.464C71.1066 573.464 74.4906 574.256 77.4186 575.84C80.3946 577.424 82.7226 579.752 84.4026 582.824C86.1306 585.848 86.9946 589.568 86.9946 593.984ZM61.2186 593.984C61.2186 597.392 61.6746 600.008 62.5866 601.832C63.4986 603.608 65.0346 604.496 67.1946 604.496C69.3066 604.496 70.7946 603.608 71.6586 601.832C72.5706 600.008 73.0266 597.392 73.0266 593.984C73.0266 590.576 72.5706 588.008 71.6586 586.28C70.7946 584.552 69.2826 583.688 67.1226 583.688C65.0586 583.688 63.5466 584.552 62.5866 586.28C61.6746 588.008 61.2186 590.576 61.2186 593.984ZM133.558 574.184V614H123.19L121.462 609.032H120.67C119.422 611.048 117.718 612.512 115.558 613.424C113.398 614.288 111.094 614.72 108.646 614.72C106.054 614.72 103.702 614.216 101.59 613.208C99.4783 612.2 97.7983 610.616 96.5503 608.456C95.3503 606.296 94.7503 603.512 94.7503 600.104V574.184H108.502V595.928C108.502 598.52 108.862 600.488 109.582 601.832C110.35 603.176 111.574 603.848 113.254 603.848C115.846 603.848 117.574 602.792 118.438 600.68C119.35 598.568 119.806 595.544 119.806 591.608V574.184H133.558ZM167.105 573.464C167.873 573.464 168.665 573.512 169.481 573.608C170.297 573.704 170.897 573.8 171.281 573.896L170.057 586.856C169.577 586.76 168.977 586.664 168.257 586.568C167.585 586.472 166.625 586.424 165.377 586.424C164.225 586.424 162.977 586.592 161.633 586.928C160.337 587.264 159.209 588.008 158.249 589.16C157.289 590.264 156.809 592.016 156.809 594.416V614H143.057V574.184H153.281L155.441 580.52H156.089C157.193 578.552 158.729 576.896 160.697 575.552C162.713 574.16 164.849 573.464 167.105 573.464ZM219.846 573.464C224.262 573.464 227.718 575.24 230.214 578.792C232.71 582.296 233.958 587.36 233.958 593.984C233.958 598.496 233.31 602.312 232.014 605.432C230.766 608.504 229.038 610.832 226.83 612.416C224.67 613.952 222.198 614.72 219.414 614.72C216.63 614.72 214.446 614.216 212.862 613.208C211.326 612.2 210.126 611.168 209.262 610.112H208.83C208.926 611.024 209.022 612.008 209.118 613.064C209.214 614.12 209.262 615.344 209.262 616.736V631.28H195.51V574.184H206.67L208.614 579.224H209.262C210.222 577.688 211.518 576.344 213.15 575.192C214.83 574.04 217.062 573.464 219.846 573.464ZM214.662 584.264C212.646 584.264 211.254 584.984 210.486 586.424C209.766 587.864 209.358 590 209.262 592.832V593.912C209.262 597.08 209.646 599.504 210.414 601.184C211.182 602.816 212.622 603.632 214.734 603.632C216.462 603.632 217.758 602.888 218.622 601.4C219.534 599.864 219.99 597.344 219.99 593.84C219.99 590.336 219.534 587.864 218.622 586.424C217.71 584.984 216.39 584.264 214.662 584.264ZM255.527 614H241.775V559.28H255.527V614ZM284.489 573.464C289.529 573.464 293.465 574.712 296.297 577.208C299.129 579.704 300.545 583.256 300.545 587.864V614H291.041L288.377 608.744H288.089C286.985 610.136 285.833 611.288 284.633 612.2C283.481 613.064 282.137 613.688 280.601 614.072C279.065 614.504 277.193 614.72 274.985 614.72C271.529 614.72 268.649 613.664 266.345 611.552C264.041 609.44 262.889 606.2 262.889 601.832C262.889 597.56 264.353 594.392 267.281 592.328C270.257 590.264 274.553 589.112 280.169 588.872L286.793 588.656V588.08C286.793 586.304 286.361 585.056 285.497 584.336C284.633 583.568 283.457 583.184 281.969 583.184C280.385 583.184 278.633 583.472 276.713 584.048C274.793 584.576 272.849 585.272 270.881 586.136L266.921 577.064C269.225 575.864 271.817 574.976 274.697 574.4C277.625 573.776 280.889 573.464 284.489 573.464ZM283.697 596.36C281.201 596.456 279.425 596.912 278.369 597.728C277.361 598.496 276.857 599.6 276.857 601.04C276.857 602.384 277.217 603.392 277.937 604.064C278.657 604.688 279.617 605 280.817 605C282.497 605 283.913 604.472 285.065 603.416C286.265 602.36 286.865 600.992 286.865 599.312V596.216L283.697 596.36ZM328.052 614.72C322.004 614.72 317.18 613.088 313.58 609.824C309.98 606.56 308.18 601.376 308.18 594.272C308.18 589.424 309.092 585.488 310.916 582.464C312.74 579.392 315.212 577.136 318.332 575.696C321.5 574.208 325.1 573.464 329.132 573.464C331.58 573.464 333.884 573.728 336.044 574.256C338.252 574.784 340.292 575.528 342.164 576.488L338.132 586.64C336.5 585.92 334.964 585.344 333.524 584.912C332.132 584.48 330.668 584.264 329.132 584.264C327.068 584.264 325.388 585.08 324.092 586.712C322.796 588.344 322.148 590.84 322.148 594.2C322.148 597.656 322.796 600.128 324.092 601.616C325.436 603.056 327.14 603.776 329.204 603.776C331.172 603.776 333.14 603.464 335.108 602.84C337.124 602.216 339.02 601.352 340.796 600.248V611.192C339.164 612.248 337.316 613.112 335.252 613.784C333.188 614.408 330.788 614.72 328.052 614.72ZM366.649 573.464C372.457 573.464 377.041 574.976 380.401 578C383.761 581.024 385.441 585.584 385.441 591.68V597.8H360.889C360.985 599.864 361.753 601.568 363.193 602.912C364.681 604.256 366.817 604.928 369.601 604.928C372.097 604.928 374.377 604.688 376.441 604.208C378.505 603.728 380.641 602.96 382.849 601.904V611.768C380.929 612.776 378.817 613.52 376.513 614C374.257 614.48 371.401 614.72 367.945 614.72C363.913 614.72 360.313 614.024 357.145 612.632C354.025 611.192 351.553 608.96 349.729 605.936C347.905 602.912 346.993 599.048 346.993 594.344C346.993 589.544 347.809 585.608 349.441 582.536C351.121 579.464 353.425 577.184 356.353 575.696C359.329 574.208 362.761 573.464 366.649 573.464ZM367.153 582.824C365.521 582.824 364.153 583.328 363.049 584.336C361.993 585.344 361.369 586.952 361.177 589.16H372.985C372.937 587.384 372.409 585.896 371.401 584.696C370.441 583.448 369.025 582.824 367.153 582.824ZM431.444 603.848C432.692 603.848 433.82 603.728 434.828 603.488C435.884 603.2 436.964 602.864 438.068 602.48V612.488C436.58 613.112 434.996 613.64 433.316 614.072C431.636 614.504 429.5 614.72 426.908 614.72C424.316 614.72 422.036 614.312 420.068 613.496C418.148 612.68 416.636 611.288 415.532 609.32C414.428 607.304 413.876 604.496 413.876 600.896V584.48H409.052V578.864L415.172 574.544L418.7 566.192H427.7V574.184H437.492V584.48H427.7V599.96C427.7 602.552 428.948 603.848 431.444 603.848ZM483.065 593.984C483.065 600.656 481.289 605.792 477.737 609.392C474.185 612.944 469.313 614.72 463.121 614.72C459.281 614.72 455.873 613.928 452.897 612.344C449.921 610.712 447.569 608.36 445.841 605.288C444.161 602.168 443.321 598.4 443.321 593.984C443.321 587.408 445.097 582.344 448.649 578.792C452.201 575.24 457.097 573.464 463.337 573.464C467.177 573.464 470.561 574.256 473.489 575.84C476.465 577.424 478.793 579.752 480.473 582.824C482.201 585.848 483.065 589.568 483.065 593.984ZM457.289 593.984C457.289 597.392 457.745 600.008 458.657 601.832C459.569 603.608 461.105 604.496 463.265 604.496C465.377 604.496 466.865 603.608 467.729 601.832C468.641 600.008 469.097 597.392 469.097 593.984C469.097 590.576 468.641 588.008 467.729 586.28C466.865 584.552 465.353 583.688 463.193 583.688C461.129 583.688 459.617 584.552 458.657 586.28C457.745 588.008 457.289 590.576 457.289 593.984ZM529.108 603.848C530.356 603.848 531.484 603.728 532.492 603.488C533.548 603.2 534.628 602.864 535.732 602.48V612.488C534.244 613.112 532.66 613.64 530.98 614.072C529.3 614.504 527.164 614.72 524.572 614.72C521.98 614.72 519.7 614.312 517.732 613.496C515.812 612.68 514.3 611.288 513.196 609.32C512.092 607.304 511.54 604.496 511.54 600.896V584.48H506.716V578.864L512.836 574.544L516.364 566.192H525.364V574.184H535.156V584.48H525.364V599.96C525.364 602.552 526.612 603.848 529.108 603.848ZM562.153 573.464C567.193 573.464 571.129 574.712 573.961 577.208C576.793 579.704 578.209 583.256 578.209 587.864V614H568.705L566.041 608.744H565.753C564.649 610.136 563.497 611.288 562.297 612.2C561.145 613.064 559.801 613.688 558.265 614.072C556.729 614.504 554.857 614.72 552.649 614.72C549.193 614.72 546.313 613.664 544.009 611.552C541.705 609.44 540.553 606.2 540.553 601.832C540.553 597.56 542.017 594.392 544.945 592.328C547.921 590.264 552.217 589.112 557.833 588.872L564.457 588.656V588.08C564.457 586.304 564.025 585.056 563.161 584.336C562.297 583.568 561.121 583.184 559.633 583.184C558.049 583.184 556.297 583.472 554.377 584.048C552.457 584.576 550.513 585.272 548.545 586.136L544.585 577.064C546.889 575.864 549.481 574.976 552.361 574.4C555.289 573.776 558.553 573.464 562.153 573.464ZM561.361 596.36C558.865 596.456 557.089 596.912 556.033 597.728C555.025 598.496 554.521 599.6 554.521 601.04C554.521 602.384 554.881 603.392 555.601 604.064C556.321 604.688 557.281 605 558.481 605C560.161 605 561.577 604.472 562.729 603.416C563.929 602.36 564.529 600.992 564.529 599.312V596.216L561.361 596.36ZM601.324 614H587.572V559.28H601.324V614ZM624.67 580.808C624.67 582.44 624.598 584.24 624.454 586.208C624.31 588.176 624.118 589.976 623.878 591.608H624.166C624.694 590.792 625.366 589.76 626.182 588.512C627.046 587.264 627.79 586.232 628.414 585.416L637.342 574.184H652.678L638.854 591.104L653.542 614H637.846L629.134 599.744L624.67 603.128V614H610.846V559.28H624.67V580.808Z" fill="#0B090C"/>
<defs>
<clipPath id="clip0">
<rect width="654" height="537" fill="white" transform="translate(3)"/>
</clipPath>
</defs>
</svg>
