<svg width="310" height="81" viewBox="0 0 310 81" fill="none" xmlns="http://www.w3.org/2000/svg">
<path d="M269.157 10.125C287.877 10.125 303.193 22.2075 303.193 37.125C303.193 52.0425 287.877 64.125 269.157 64.125C264.937 64.125 260.886 63.5175 257.142 62.4375C247.204 70.875 235.121 70.875 235.121 70.875C243.052 63.0112 244.311 57.7125 244.481 55.6875C238.695 50.8613 235.121 44.3138 235.121 37.125C235.121 22.2075 250.437 10.125 269.157 10.125ZM286.175 40.5V33.75H279.368V40.5H286.175ZM272.561 40.5V33.75H265.753V40.5H272.561ZM258.946 40.5V33.75H252.139V40.5H258.946Z" fill="#2F80ED"/>
<path d="M49.152 25.2746L40.704 59.5466H29.76L26.496 44.6186C26.432 44.3306 26.336 43.8506 26.208 43.1786C26.08 42.5066 25.92 41.7386 25.728 40.8746C25.568 40.0106 25.424 39.1626 25.296 38.3306C25.168 37.4986 25.072 36.7946 25.008 36.2186C24.944 36.7946 24.832 37.4986 24.672 38.3306C24.544 39.1626 24.4 40.0106 24.24 40.8746C24.08 41.7386 23.92 42.5066 23.76 43.1786C23.632 43.8506 23.536 44.3306 23.472 44.6186L20.16 59.5466H9.216L0.72 25.2746H9.648L13.392 42.4586C13.488 42.8746 13.616 43.4826 13.776 44.2826C13.936 45.0506 14.096 45.8826 14.256 46.7786C14.448 47.6746 14.624 48.5546 14.784 49.4186C14.944 50.2506 15.056 50.9546 15.12 51.5306C15.248 50.5706 15.408 49.4666 15.6 48.2186C15.824 46.9706 16.064 45.7226 16.32 44.4746C16.576 43.1946 16.816 42.0106 17.04 40.9226C17.296 39.8346 17.504 38.9386 17.664 38.2346L20.688 25.2746H29.28L32.208 38.2346C32.368 38.9066 32.56 39.8026 32.784 40.9226C33.04 42.0106 33.296 43.1946 33.552 44.4746C33.808 45.7546 34.048 47.0186 34.272 48.2666C34.496 49.5146 34.656 50.6026 34.752 51.5306C34.848 50.7306 35.008 49.7386 35.232 48.5546C35.456 47.3706 35.68 46.2186 35.904 45.0986C36.128 43.9466 36.304 43.0826 36.432 42.5066L40.224 25.2746H49.152ZM64.0575 32.5226C67.9295 32.5226 70.9855 33.5306 73.2255 35.5466C75.4655 37.5626 76.5855 40.6026 76.5855 44.6666V48.7466H60.2175C60.2815 50.1226 60.7935 51.2586 61.7535 52.1546C62.7455 53.0506 64.1695 53.4986 66.0255 53.4986C67.6895 53.4986 69.2095 53.3386 70.5855 53.0186C71.9615 52.6986 73.3855 52.1866 74.8575 51.4826V58.0586C73.5775 58.7306 72.1695 59.2266 70.6335 59.5466C69.1295 59.8666 67.2255 60.0266 64.9215 60.0266C62.2335 60.0266 59.8335 59.5626 57.7215 58.6346C55.6415 57.6746 53.9935 56.1866 52.7775 54.1706C51.5615 52.1546 50.9535 49.5786 50.9535 46.4426C50.9535 43.2426 51.4975 40.6186 52.5855 38.5706C53.7055 36.5226 55.2415 35.0026 57.1935 34.0106C59.1775 33.0186 61.4655 32.5226 64.0575 32.5226ZM64.3935 38.7626C63.3055 38.7626 62.3935 39.0986 61.6575 39.7706C60.9535 40.4426 60.5375 41.5146 60.4095 42.9866H68.2815C68.2495 41.8026 67.8975 40.8106 67.2255 40.0106C66.5855 39.1786 65.6415 38.7626 64.3935 38.7626ZM90.9454 31.3226C90.9454 32.2506 90.9134 33.1466 90.8494 34.0106C90.7854 34.8746 90.7054 35.6746 90.6094 36.4106H90.9454C91.6174 35.3226 92.5134 34.4106 93.6334 33.6746C94.7534 32.9066 96.2094 32.5226 98.0014 32.5226C100.753 32.5226 103.009 33.6906 104.769 36.0266C106.529 38.3626 107.409 41.7546 107.409 46.2026C107.409 50.7466 106.513 54.1866 104.721 56.5226C102.929 58.8586 100.593 60.0266 97.7134 60.0266C95.8574 60.0266 94.4334 59.7066 93.4414 59.0666C92.4494 58.3946 91.6174 57.6906 90.9454 56.9546H90.3694L88.9294 59.5466H81.7774V23.0666H90.9454V31.3226ZM94.6414 39.7226C93.3614 39.7226 92.4174 40.1706 91.8094 41.0666C91.2334 41.9626 90.9454 43.3546 90.9454 45.2426V46.5386C90.9454 48.5866 91.2174 50.1226 91.7614 51.1466C92.3374 52.1386 93.3294 52.6346 94.7374 52.6346C96.9774 52.6346 98.0974 50.4586 98.0974 46.1066C98.0974 41.8506 96.9454 39.7226 94.6414 39.7226ZM128.413 32.3786C126.237 32.3786 124.525 33.2746 123.277 35.0666C122.029 36.8586 121.405 39.3546 121.405 42.5546C121.405 45.7866 122.029 48.2506 123.277 49.9466C124.525 51.6106 126.413 52.4426 128.941 52.4426C130.445 52.4426 131.901 52.2346 133.309 51.8186C134.749 51.4026 136.189 50.8906 137.629 50.2826V58.1066C136.125 58.7786 134.573 59.2586 132.973 59.5466C131.405 59.8666 129.725 60.0266 127.933 60.0266C124.221 60.0266 121.181 59.2906 118.813 57.8186C116.445 56.3466 114.701 54.2986 113.581 51.6746C112.461 49.0186 111.901 45.9626 111.901 42.5066C111.901 39.0506 112.541 35.9946 113.821 33.3386C115.101 30.6826 116.973 28.6026 119.437 27.0986C121.933 25.5626 124.957 24.7946 128.509 24.7946C130.173 24.7946 131.917 24.9866 133.741 25.3706C135.565 25.7546 137.357 26.3626 139.117 27.1946L136.285 34.4906C135.037 33.8826 133.773 33.3866 132.493 33.0026C131.213 32.5866 129.853 32.3786 128.413 32.3786ZM152.961 28.2506C152.961 30.2026 152.913 31.8506 152.817 33.1946C152.721 34.5386 152.641 35.5626 152.577 36.2666H153.009C153.873 34.8906 154.913 33.9306 156.129 33.3866C157.345 32.8106 158.737 32.5226 160.305 32.5226C162.065 32.5226 163.649 32.8586 165.057 33.5306C166.465 34.2026 167.585 35.2586 168.417 36.6986C169.281 38.1066 169.713 39.9626 169.713 42.2666V59.5466H160.497V45.0506C160.497 41.4986 159.441 39.7226 157.329 39.7226C155.665 39.7226 154.513 40.4266 153.873 41.8346C153.265 43.2426 152.961 45.2586 152.961 47.8826V59.5466H143.793V23.0666H152.961V28.2506ZM188.909 32.5226C192.269 32.5226 194.893 33.3546 196.781 35.0186C198.669 36.6826 199.613 39.0506 199.613 42.1226V59.5466H193.277L191.501 56.0426H191.309C190.573 56.9706 189.805 57.7386 189.005 58.3466C188.237 58.9226 187.341 59.3386 186.317 59.5946C185.293 59.8826 184.045 60.0266 182.573 60.0266C180.269 60.0266 178.349 59.3226 176.813 57.9146C175.277 56.5066 174.509 54.3466 174.509 51.4346C174.509 48.5866 175.485 46.4746 177.437 45.0986C179.421 43.7226 182.285 42.9546 186.029 42.7946L190.445 42.6506V42.2666C190.445 41.0826 190.157 40.2506 189.581 39.7706C189.005 39.2586 188.221 39.0026 187.229 39.0026C186.173 39.0026 185.005 39.1946 183.725 39.5786C182.445 39.9306 181.149 40.3946 179.837 40.9706L177.197 34.9226C178.733 34.1226 180.461 33.5306 182.381 33.1466C184.333 32.7306 186.509 32.5226 188.909 32.5226ZM188.381 47.7866C186.717 47.8506 185.533 48.1546 184.829 48.6986C184.157 49.2106 183.821 49.9466 183.821 50.9066C183.821 51.8026 184.061 52.4746 184.541 52.9226C185.021 53.3386 185.661 53.5466 186.461 53.5466C187.581 53.5466 188.525 53.1946 189.293 52.4906C190.093 51.7866 190.493 50.8746 190.493 49.7546V47.6906L188.381 47.7866ZM218.864 52.7786C219.696 52.7786 220.448 52.6986 221.12 52.5386C221.824 52.3466 222.544 52.1226 223.28 51.8666V58.5386C222.288 58.9546 221.232 59.3066 220.112 59.5946C218.992 59.8826 217.568 60.0266 215.84 60.0266C214.112 60.0266 212.592 59.7546 211.28 59.2106C210 58.6666 208.992 57.7386 208.256 56.4266C207.52 55.0826 207.152 53.2106 207.152 50.8106V39.8666H203.936V36.1226L208.016 33.2426L210.368 27.6746H216.368V33.0026H222.896V39.8666H216.368V50.1866C216.368 51.9146 217.2 52.7786 218.864 52.7786Z" fill="#F5F5F5"/>
</svg>
